<svg width="111" height="30" viewBox="0 0 111 30" fill="none" xmlns="http://www.w3.org/2000/svg">
<g filter="url(#filter0_d_0_8)">
<path fill-rule="evenodd" clip-rule="evenodd" d="M9.13178 13.1602L8.1365 15.0336V21.3273H4.9165V0.836356H8.1365V9.76454L12.3518 0.836356H15.5718L11.093 9.96945L15.5718 21.3273H12.264L9.13178 13.1602ZM20.1174 16.6144C20.1174 17.3559 20.2686 17.878 20.5711 18.1804C20.8736 18.4829 21.2785 18.6342 21.7859 18.6342C22.2933 18.6342 22.6982 18.4829 23.0007 18.1804C23.3032 17.878 23.4544 17.3559 23.4544 16.6144V5.54926C23.4544 4.80768 23.3032 4.28566 23.0007 3.98317C22.6982 3.68069 22.2933 3.52945 21.7859 3.52945C21.2785 3.52945 20.8736 3.68069 20.5711 3.98317C20.2686 4.28566 20.1174 4.80768 20.1174 5.54926V16.6144ZM16.8975 5.75417C16.8975 4.09538 17.317 2.82203 18.1562 1.93408C18.9954 1.04614 20.2053 0.602173 21.786 0.602173C23.3667 0.602173 24.5767 1.04614 25.4158 1.93408C26.255 2.82203 26.6746 4.09538 26.6746 5.75417V16.4094C26.6746 18.0682 26.255 19.3416 25.4158 20.2295C24.5767 21.1175 23.3667 21.5614 21.786 21.5614C20.2053 21.5614 18.9954 21.1175 18.1562 20.2295C17.317 19.3416 16.8975 18.0682 16.8975 16.4094V5.75417ZM31.9518 6.48599V21.3273H29.0538V0.836356H33.0935L36.4013 13.1016V0.836356H39.27V21.3273H35.9622L31.9518 6.48599ZM41.5034 5.75417C41.5034 4.09538 41.8985 2.82203 42.6889 1.93408C43.4793 1.04614 44.6648 0.602173 46.2455 0.602173C47.8263 0.602173 49.0118 1.04614 49.8022 1.93408C50.5925 2.82203 50.9877 4.09538 50.9877 5.75417V6.39817H47.9434V5.54926C47.9434 4.80768 47.8019 4.28566 47.5189 3.98317C47.2359 3.68069 46.8408 3.52945 46.3334 3.52945C45.826 3.52945 45.4308 3.68069 45.1478 3.98317C44.8648 4.28566 44.7234 4.80768 44.7234 5.54926C44.7234 6.25181 44.8795 6.87141 45.1917 7.40808C45.504 7.94475 45.8943 8.45214 46.3626 8.93026C46.831 9.40839 47.3335 9.8865 47.8702 10.3646C48.4068 10.8428 48.9094 11.3648 49.3777 11.9307C49.8461 12.4967 50.2364 13.1407 50.5486 13.8627C50.8609 14.5848 51.017 15.4337 51.017 16.4094C51.017 18.0682 50.6121 19.3416 49.8022 20.2295C48.9923 21.1175 47.797 21.5614 46.2163 21.5614C44.6355 21.5614 43.4402 21.1175 42.6304 20.2295C41.8205 19.3416 41.4155 18.0682 41.4155 16.4094V15.1507H44.4599V16.6144C44.4599 17.3559 44.6111 17.8731 44.9136 18.1658C45.2161 18.4585 45.621 18.6049 46.1284 18.6049C46.6358 18.6049 47.0408 18.4585 47.3433 18.1658C47.6458 17.8731 47.797 17.3559 47.797 16.6144C47.797 15.9118 47.6409 15.2922 47.3286 14.7555C47.0164 14.2189 46.6261 13.7115 46.1577 13.2334C45.6894 12.7552 45.1868 12.2771 44.6502 11.799C44.1135 11.3209 43.611 10.7988 43.1426 10.2329C42.6743 9.66696 42.284 9.02296 41.9717 8.3009C41.6595 7.57884 41.5034 6.72994 41.5034 5.75417ZM52.2546 0.836356H62.2073V3.76363H58.8409V21.3273H55.6209V3.76363H52.2546V0.836356ZM70.6756 21.3273C70.6366 21.1907 70.5976 21.0638 70.5585 20.9467C70.5195 20.8296 70.4854 20.6833 70.4561 20.5076C70.4268 20.332 70.4073 20.1076 70.3975 19.8344C70.3878 19.5611 70.3829 19.2196 70.3829 18.8098V15.5898C70.3829 14.6336 70.217 13.9603 69.8853 13.57C69.5535 13.1797 69.0169 12.9845 68.2753 12.9845H67.1629V21.3273H63.9429V0.836356H68.8022C70.4805 0.836356 71.6953 1.22666 72.4466 2.00727C73.198 2.78788 73.5736 3.96853 73.5736 5.54927V7.15927C73.5736 9.26691 72.8711 10.6525 71.466 11.316C72.2856 11.6478 72.8467 12.1893 73.1492 12.9406C73.4517 13.692 73.6029 14.6043 73.6029 15.6776V18.8391C73.6029 19.3465 73.6224 19.7904 73.6615 20.171C73.7005 20.5515 73.7981 20.937 73.9542 21.3273H70.6756ZM67.1628 3.76363V10.0573H68.4215C69.0265 10.0573 69.4998 9.90115 69.8413 9.5889C70.1828 9.27666 70.3535 8.71072 70.3535 7.89108V5.87127C70.3535 5.12969 70.2218 4.59302 69.9584 4.26126C69.6949 3.92951 69.2802 3.76363 68.7143 3.76363H67.1628ZM79.1145 0.836356V16.6436C79.1145 17.3852 79.2657 17.9024 79.5682 18.1951C79.8707 18.4878 80.2757 18.6342 80.7831 18.6342C81.2904 18.6342 81.6954 18.4878 81.9979 18.1951C82.3004 17.9024 82.4516 17.3852 82.4516 16.6436V0.836356H85.496V16.4387C85.496 18.0975 85.091 19.3709 84.2811 20.2588C83.4713 21.1468 82.276 21.5907 80.6952 21.5907C79.1145 21.5907 77.9192 21.1468 77.1093 20.2588C76.2994 19.3709 75.8945 18.0975 75.8945 16.4387V0.836356H79.1145ZM96.8203 0.836356H106.773V3.76363H103.407V21.3273H100.187V3.76363H96.8203V0.836356Z" fill="white"/>
<path fill-rule="evenodd" clip-rule="evenodd" d="M87.0255 11.4851L95.3892 1.03059V21.9397L87.0255 11.4851Z" fill="#00A4E5"/>
</g>
<defs>
<filter id="filter0_d_0_8" x="0.916504" y="0" width="109.857" height="31" filterUnits="userSpaceOnUse" color-interpolation-filters="sRGB">
<feFlood flood-opacity="0" result="BackgroundImageFix"/>
<feColorMatrix in="SourceAlpha" type="matrix" values="0 0 0 0 0 0 0 0 0 0 0 0 0 0 0 0 0 0 127 0" result="hardAlpha"/>
<feOffset dy="4"/>
<feGaussianBlur stdDeviation="2"/>
<feComposite in2="hardAlpha" operator="out"/>
<feColorMatrix type="matrix" values="0 0 0 0 0 0 0 0 0 0 0 0 0 0 0 0 0 0 0.25 0"/>
<feBlend mode="normal" in2="BackgroundImageFix" result="effect1_dropShadow_0_8"/>
<feBlend mode="normal" in="SourceGraphic" in2="effect1_dropShadow_0_8" result="shape"/>
</filter>
</defs>
</svg>
