<svg width="102" height="23" viewBox="0 0 102 23" fill="none" xmlns="http://www.w3.org/2000/svg">
<path fill-rule="evenodd" clip-rule="evenodd" d="M4.13166 13.1603L3.13638 15.0338V21.3274H-0.0836182V0.836477H3.13638V9.76466L7.35166 0.836477H10.5717L6.09293 9.96957L10.5717 21.3274H7.26384L4.13166 13.1603ZM15.1173 16.6145C15.1173 17.3561 15.2685 17.8781 15.571 18.1806C15.8735 18.4831 16.2784 18.6343 16.7858 18.6343C17.2932 18.6343 17.6982 18.4831 18.0007 18.1806C18.3031 17.8781 18.4544 17.3561 18.4544 16.6145V5.54939C18.4544 4.80781 18.3031 4.28578 18.0007 3.9833C17.6982 3.68081 17.2932 3.52957 16.7858 3.52957C16.2784 3.52957 15.8735 3.68081 15.571 3.9833C15.2685 4.28578 15.1173 4.80781 15.1173 5.54939V16.6145ZM11.8973 5.7543C11.8973 4.0955 12.3169 2.82215 13.156 1.9342C13.9952 1.04626 15.2051 0.602295 16.7858 0.602295C18.3666 0.602295 19.5765 1.04626 20.4157 1.9342C21.2548 2.82215 21.6744 4.0955 21.6744 5.7543V16.4096C21.6744 18.0684 21.2548 19.3417 20.4157 20.2297C19.5765 21.1176 18.3666 21.5616 16.7858 21.5616C15.2051 21.5616 13.9952 21.1176 13.156 20.2297C12.3169 19.3417 11.8973 18.0684 11.8973 16.4096V5.7543ZM26.9518 6.48611V21.3274H24.0538V0.836477H28.0935L31.4013 13.1017V0.836477H34.27V21.3274H30.9622L26.9518 6.48611ZM36.5031 5.7543C36.5031 4.0955 36.8983 2.82215 37.6887 1.9342C38.479 1.04626 39.6646 0.602295 41.2453 0.602295C42.826 0.602295 44.0116 1.04626 44.8019 1.9342C45.5923 2.82215 45.9875 4.0955 45.9875 5.7543V6.3983H42.9431V5.54939C42.9431 4.80781 42.8016 4.28578 42.5187 3.9833C42.2357 3.68081 41.8405 3.52957 41.3331 3.52957C40.8257 3.52957 40.4305 3.68081 40.1476 3.9833C39.8646 4.28578 39.7231 4.80781 39.7231 5.54939C39.7231 6.25194 39.8792 6.87154 40.1915 7.4082C40.5037 7.94487 40.894 8.45226 41.3624 8.93039C41.8307 9.40851 42.3333 9.88663 42.8699 10.3647C43.4066 10.8429 43.9091 11.3649 44.3775 11.9308C44.8458 12.4968 45.2361 13.1408 45.5484 13.8628C45.8606 14.5849 46.0167 15.4338 46.0167 16.4096C46.0167 18.0684 45.6118 19.3417 44.8019 20.2297C43.992 21.1176 42.7968 21.5616 41.216 21.5616C39.6353 21.5616 38.44 21.1176 37.6301 20.2297C36.8202 19.3417 36.4153 18.0684 36.4153 16.4096V15.1508H39.4597V16.6145C39.4597 17.3561 39.6109 17.8732 39.9134 18.1659C40.2159 18.4587 40.6208 18.605 41.1282 18.605C41.6356 18.605 42.0405 18.4587 42.343 18.1659C42.6455 17.8732 42.7967 17.3561 42.7967 16.6145C42.7967 15.9119 42.6406 15.2923 42.3284 14.7557C42.0161 14.219 41.6258 13.7116 41.1575 13.2335C40.6891 12.7554 40.1866 12.2772 39.6499 11.7991C39.1133 11.321 38.6107 10.799 38.1424 10.233C37.674 9.66708 37.2837 9.02309 36.9715 8.30102C36.6592 7.57896 36.5031 6.73006 36.5031 5.7543ZM47.2546 0.836477H57.2073V3.76375H53.8409V21.3274H50.6209V3.76375H47.2546V0.836477ZM65.6755 21.3274C65.6364 21.1908 65.5974 21.0639 65.5584 20.9468C65.5193 20.8298 65.4852 20.6834 65.4559 20.5078C65.4266 20.3321 65.4071 20.1077 65.3974 19.8345C65.3876 19.5613 65.3827 19.2198 65.3827 18.8099V15.5899C65.3827 14.6337 65.2169 13.9604 64.8851 13.5701C64.5533 13.1798 64.0167 12.9847 63.2751 12.9847H62.1627V21.3274H58.9427V0.836477H63.802C65.4803 0.836477 66.6951 1.22678 67.4465 2.00739C68.1978 2.788 68.5735 3.96865 68.5735 5.54939V7.15939C68.5735 9.26703 67.8709 10.6526 66.4658 11.3161C67.2855 11.6479 67.8465 12.1894 68.149 12.9408C68.4515 13.6921 68.6027 14.6044 68.6027 15.6778V18.8392C68.6027 19.3466 68.6222 19.7906 68.6613 20.1711C68.7003 20.5517 68.7979 20.9371 68.954 21.3274H65.6755ZM62.1627 3.76375V10.0574H63.4215C64.0264 10.0574 64.4997 9.90127 64.8412 9.58902C65.1827 9.27678 65.3535 8.71084 65.3535 7.8912V5.87139C65.3535 5.12981 65.2217 4.59314 64.9583 4.26139C64.6948 3.92963 64.2801 3.76375 63.7142 3.76375H62.1627ZM74.1144 0.836477V16.6438C74.1144 17.3853 74.2656 17.9025 74.5681 18.1952C74.8706 18.4879 75.2755 18.6343 75.7829 18.6343C76.2903 18.6343 76.6953 18.4879 76.9977 18.1952C77.3002 17.9025 77.4515 17.3853 77.4515 16.6438V0.836477H80.4958V16.4388C80.4958 18.0976 80.0909 19.371 79.281 20.2589C78.4711 21.1469 77.2758 21.5908 75.6951 21.5908C74.1144 21.5908 72.9191 21.1469 72.1092 20.2589C71.2993 19.371 70.8944 18.0976 70.8944 16.4388V0.836477H74.1144ZM91.8202 0.836477H101.773V3.76375H98.4066V21.3274H95.1866V3.76375H91.8202V0.836477Z" fill="white"/>
<path fill-rule="evenodd" clip-rule="evenodd" d="M82.0254 11.4851L90.389 1.03052V21.9396L82.0254 11.4851Z" fill="#00A4E5"/>
</svg>
